<?xml version="1.0" encoding="UTF-8" standalone="no"?><svg xmlns="http://www.w3.org/2000/svg" xmlns:xlink="http://www.w3.org/1999/xlink" contentScriptType="application/ecmascript" contentStyleType="text/css" height="768px" preserveAspectRatio="none" style="width:632px;height:768px;" version="1.1" viewBox="0 0 632 768" width="632px" zoomAndPan="magnify"><defs><filter height="300%" id="f3uabqs3aytno" width="300%" x="-1" y="-1"><feGaussianBlur result="blurOut" stdDeviation="2.0"/><feColorMatrix in="blurOut" result="blurOut2" type="matrix" values="0 0 0 0 0 0 0 0 0 0 0 0 0 0 0 0 0 0 .4 0"/><feOffset dx="4.0" dy="4.0" in="blurOut2" result="blurOut3"/><feBlend in="SourceGraphic" in2="blurOut3" mode="normal"/></filter></defs><g><!--MD5=[7283a9eed84464550b6d5ebf39c68b05]
class Mastermind--><rect fill="#FEFECE" filter="url(#f3uabqs3aytno)" height="60.8047" id="Mastermind" style="stroke: #A80036; stroke-width: 1.5;" width="105" x="115.5" y="8"/><ellipse cx="130.5" cy="24" fill="#ADD1B2" rx="11" ry="11" style="stroke: #A80036; stroke-width: 1.0;"/><path d="M133.4688,29.6406 Q132.8906,29.9375 132.25,30.0859 Q131.6094,30.2344 130.9063,30.2344 Q128.4063,30.2344 127.0859,28.5859 Q125.7656,26.9375 125.7656,23.8125 Q125.7656,20.6875 127.0859,19.0313 Q128.4063,17.375 130.9063,17.375 Q131.6094,17.375 132.2578,17.5313 Q132.9063,17.6875 133.4688,17.9844 L133.4688,20.7031 Q132.8438,20.125 132.25,19.8516 Q131.6563,19.5781 131.0313,19.5781 Q129.6875,19.5781 129,20.6484 Q128.3125,21.7188 128.3125,23.8125 Q128.3125,25.9063 129,26.9766 Q129.6875,28.0469 131.0313,28.0469 Q131.6563,28.0469 132.25,27.7734 Q132.8438,27.5 133.4688,26.9219 L133.4688,29.6406 Z "/><text fill="#000000" font-family="sans-serif" font-size="12" lengthAdjust="spacingAndGlyphs" textLength="73" x="144.5" y="28.1543">Mastermind</text><line style="stroke: #A80036; stroke-width: 1.5;" x1="116.5" x2="219.5" y1="40" y2="40"/><line style="stroke: #A80036; stroke-width: 1.5;" x1="116.5" x2="219.5" y1="48" y2="48"/><text fill="#000000" font-family="sans-serif" font-size="11" lengthAdjust="spacingAndGlyphs" textLength="31" x="121.5" y="62.2104">play()</text><!--MD5=[91d8b2454a0b582f517bc88585e89d85]
class SecretPlayer--><rect fill="#FEFECE" filter="url(#f3uabqs3aytno)" height="99.2188" id="SecretPlayer" style="stroke: #A80036; stroke-width: 1.5;" width="181" x="149.5" y="129"/><ellipse cx="196.25" cy="145" fill="#ADD1B2" rx="11" ry="11" style="stroke: #A80036; stroke-width: 1.0;"/><path d="M199.2188,150.6406 Q198.6406,150.9375 198,151.0859 Q197.3594,151.2344 196.6563,151.2344 Q194.1563,151.2344 192.8359,149.5859 Q191.5156,147.9375 191.5156,144.8125 Q191.5156,141.6875 192.8359,140.0313 Q194.1563,138.375 196.6563,138.375 Q197.3594,138.375 198.0078,138.5313 Q198.6563,138.6875 199.2188,138.9844 L199.2188,141.7031 Q198.5938,141.125 198,140.8516 Q197.4063,140.5781 196.7813,140.5781 Q195.4375,140.5781 194.75,141.6484 Q194.0625,142.7188 194.0625,144.8125 Q194.0625,146.9063 194.75,147.9766 Q195.4375,149.0469 196.7813,149.0469 Q197.4063,149.0469 198,148.7734 Q198.5938,148.5 199.2188,147.9219 L199.2188,150.6406 Z "/><text fill="#000000" font-family="sans-serif" font-size="12" lengthAdjust="spacingAndGlyphs" textLength="79" x="216.75" y="149.1543">SecretPlayer</text><line style="stroke: #A80036; stroke-width: 1.5;" x1="150.5" x2="329.5" y1="161" y2="161"/><line style="stroke: #A80036; stroke-width: 1.5;" x1="150.5" x2="329.5" y1="169" y2="169"/><text fill="#000000" font-family="sans-serif" font-size="11" lengthAdjust="spacingAndGlyphs" textLength="169" x="155.5" y="183.2104">SecretPlayer(ProposedPlayer)</text><text fill="#000000" font-family="sans-serif" font-size="11" lengthAdjust="spacingAndGlyphs" textLength="53" x="155.5" y="196.0151">prepare()</text><text fill="#000000" font-family="sans-serif" font-size="11" lengthAdjust="spacingAndGlyphs" textLength="50" x="155.5" y="208.8198">answer()</text><text fill="#000000" font-family="sans-serif" font-size="11" lengthAdjust="spacingAndGlyphs" textLength="36" x="155.5" y="221.6245">write()</text><!--MD5=[1d66f1a82210bd3fdfe7a907f96ec8b8]
class ProposedPlayer--><rect fill="#FEFECE" filter="url(#f3uabqs3aytno)" height="137.6328" id="ProposedPlayer" style="stroke: #A80036; stroke-width: 1.5;" width="180" x="6" y="288"/><ellipse cx="43.5" cy="304" fill="#ADD1B2" rx="11" ry="11" style="stroke: #A80036; stroke-width: 1.0;"/><path d="M46.4688,309.6406 Q45.8906,309.9375 45.25,310.0859 Q44.6094,310.2344 43.9063,310.2344 Q41.4063,310.2344 40.0859,308.5859 Q38.7656,306.9375 38.7656,303.8125 Q38.7656,300.6875 40.0859,299.0313 Q41.4063,297.375 43.9063,297.375 Q44.6094,297.375 45.2578,297.5313 Q45.9063,297.6875 46.4688,297.9844 L46.4688,300.7031 Q45.8438,300.125 45.25,299.8516 Q44.6563,299.5781 44.0313,299.5781 Q42.6875,299.5781 42,300.6484 Q41.3125,301.7188 41.3125,303.8125 Q41.3125,305.9063 42,306.9766 Q42.6875,308.0469 44.0313,308.0469 Q44.6563,308.0469 45.25,307.7734 Q45.8438,307.5 46.4688,306.9219 L46.4688,309.6406 Z "/><text fill="#000000" font-family="sans-serif" font-size="12" lengthAdjust="spacingAndGlyphs" textLength="98" x="62.5" y="308.1543">ProposedPlayer</text><line style="stroke: #A80036; stroke-width: 1.5;" x1="7" x2="185" y1="320" y2="320"/><text fill="#000000" font-family="sans-serif" font-size="11" lengthAdjust="spacingAndGlyphs" textLength="51" x="12" y="334.2104">attempts</text><line style="stroke: #A80036; stroke-width: 1.5;" x1="7" x2="185" y1="340.8047" y2="340.8047"/><text fill="#000000" font-family="sans-serif" font-size="11" lengthAdjust="spacingAndGlyphs" textLength="55" x="12" y="355.0151">propose()</text><text fill="#000000" font-family="sans-serif" font-size="11" lengthAdjust="spacingAndGlyphs" textLength="139" x="12" y="367.8198">getLastProposedPlayer()</text><text fill="#000000" font-family="sans-serif" font-size="11" lengthAdjust="spacingAndGlyphs" textLength="83" x="12" y="380.6245">writeAttemps()</text><text fill="#000000" font-family="sans-serif" font-size="11" lengthAdjust="spacingAndGlyphs" textLength="168" x="12" y="393.4292">writeProposedCombinations()</text><text fill="#000000" font-family="sans-serif" font-size="11" lengthAdjust="spacingAndGlyphs" textLength="56" x="12" y="406.2339">isWinner()</text><text fill="#000000" font-family="sans-serif" font-size="11" lengthAdjust="spacingAndGlyphs" textLength="57" x="12" y="419.0386">isLooser()</text><!--MD5=[28491d17d5ee38c9c116625a5ffc259a]
class Combination--><rect fill="#FEFECE" filter="url(#f3uabqs3aytno)" height="48" id="Combination" style="stroke: #A80036; stroke-width: 1.5;" width="110" x="449" y="154.5"/><ellipse cx="464" cy="170.5" fill="#ADD1B2" rx="11" ry="11" style="stroke: #A80036; stroke-width: 1.0;"/><path d="M466.9688,176.1406 Q466.3906,176.4375 465.75,176.5859 Q465.1094,176.7344 464.4063,176.7344 Q461.9063,176.7344 460.5859,175.0859 Q459.2656,173.4375 459.2656,170.3125 Q459.2656,167.1875 460.5859,165.5313 Q461.9063,163.875 464.4063,163.875 Q465.1094,163.875 465.7578,164.0313 Q466.4063,164.1875 466.9688,164.4844 L466.9688,167.2031 Q466.3438,166.625 465.75,166.3516 Q465.1563,166.0781 464.5313,166.0781 Q463.1875,166.0781 462.5,167.1484 Q461.8125,168.2188 461.8125,170.3125 Q461.8125,172.4063 462.5,173.4766 Q463.1875,174.5469 464.5313,174.5469 Q465.1563,174.5469 465.75,174.2734 Q466.3438,174 466.9688,173.4219 L466.9688,176.1406 Z "/><text fill="#000000" font-family="sans-serif" font-size="12" lengthAdjust="spacingAndGlyphs" textLength="78" x="478" y="174.6543">Combination</text><line style="stroke: #A80036; stroke-width: 1.5;" x1="450" x2="558" y1="186.5" y2="186.5"/><line style="stroke: #A80036; stroke-width: 1.5;" x1="450" x2="558" y1="194.5" y2="194.5"/><!--MD5=[18eee71c88ab61f27581b8cbdd3ef5ee]
class Color--><rect fill="#FEFECE" filter="url(#f3uabqs3aytno)" height="48" id="Color" style="stroke: #A80036; stroke-width: 1.5;" width="64" x="557" y="333"/><ellipse cx="572" cy="349" fill="#EB937F" rx="11" ry="11" style="stroke: #A80036; stroke-width: 1.0;"/><path d="M576.1094,355 L568.3906,355 L568.3906,342.6094 L576.1094,342.6094 L576.1094,344.7656 L570.8438,344.7656 L570.8438,347.4375 L575.6094,347.4375 L575.6094,349.5938 L570.8438,349.5938 L570.8438,352.8438 L576.1094,352.8438 L576.1094,355 Z "/><text fill="#000000" font-family="sans-serif" font-size="12" lengthAdjust="spacingAndGlyphs" textLength="32" x="586" y="353.1543">Color</text><line style="stroke: #A80036; stroke-width: 1.5;" x1="558" x2="620" y1="365" y2="365"/><line style="stroke: #A80036; stroke-width: 1.5;" x1="558" x2="620" y1="373" y2="373"/><!--MD5=[e370ee5c0c15ce04544d5f5a73174d72]
class SecretCombination--><rect fill="#FEFECE" filter="url(#f3uabqs3aytno)" height="86.4141" id="SecretCombination" style="stroke: #A80036; stroke-width: 1.5;" width="230" x="221" y="314"/><ellipse cx="272.25" cy="330" fill="#ADD1B2" rx="11" ry="11" style="stroke: #A80036; stroke-width: 1.0;"/><path d="M275.2188,335.6406 Q274.6406,335.9375 274,336.0859 Q273.3594,336.2344 272.6563,336.2344 Q270.1563,336.2344 268.8359,334.5859 Q267.5156,332.9375 267.5156,329.8125 Q267.5156,326.6875 268.8359,325.0313 Q270.1563,323.375 272.6563,323.375 Q273.3594,323.375 274.0078,323.5313 Q274.6563,323.6875 275.2188,323.9844 L275.2188,326.7031 Q274.5938,326.125 274,325.8516 Q273.4063,325.5781 272.7813,325.5781 Q271.4375,325.5781 270.75,326.6484 Q270.0625,327.7188 270.0625,329.8125 Q270.0625,331.9063 270.75,332.9766 Q271.4375,334.0469 272.7813,334.0469 Q273.4063,334.0469 274,333.7734 Q274.5938,333.5 275.2188,332.9219 L275.2188,335.6406 Z "/><text fill="#000000" font-family="sans-serif" font-size="12" lengthAdjust="spacingAndGlyphs" textLength="119" x="292.75" y="334.1543">SecretCombination</text><line style="stroke: #A80036; stroke-width: 1.5;" x1="222" x2="450" y1="346" y2="346"/><line style="stroke: #A80036; stroke-width: 1.5;" x1="222" x2="450" y1="354" y2="354"/><text fill="#000000" font-family="sans-serif" font-size="11" lengthAdjust="spacingAndGlyphs" textLength="182" x="227" y="368.2104">SecretCombination() // aleatorio</text><text fill="#000000" font-family="sans-serif" font-size="11" lengthAdjust="spacingAndGlyphs" textLength="218" x="227" y="381.0151">calculateResult(ProposedCombination)</text><text fill="#000000" font-family="sans-serif" font-size="11" lengthAdjust="spacingAndGlyphs" textLength="36" x="227" y="393.8198">write()</text><!--MD5=[cf489b19c51ee25e76ddca093e62e620]
class ProposedCombination--><rect fill="#FEFECE" filter="url(#f3uabqs3aytno)" height="112.0234" id="ProposedCombination" style="stroke: #A80036; stroke-width: 1.5;" width="170" x="320" y="486"/><ellipse cx="335" cy="502" fill="#ADD1B2" rx="11" ry="11" style="stroke: #A80036; stroke-width: 1.0;"/><path d="M337.9688,507.6406 Q337.3906,507.9375 336.75,508.0859 Q336.1094,508.2344 335.4063,508.2344 Q332.9063,508.2344 331.5859,506.5859 Q330.2656,504.9375 330.2656,501.8125 Q330.2656,498.6875 331.5859,497.0313 Q332.9063,495.375 335.4063,495.375 Q336.1094,495.375 336.7578,495.5313 Q337.4063,495.6875 337.9688,495.9844 L337.9688,498.7031 Q337.3438,498.125 336.75,497.8516 Q336.1563,497.5781 335.5313,497.5781 Q334.1875,497.5781 333.5,498.6484 Q332.8125,499.7188 332.8125,501.8125 Q332.8125,503.9063 333.5,504.9766 Q334.1875,506.0469 335.5313,506.0469 Q336.1563,506.0469 336.75,505.7734 Q337.3438,505.5 337.9688,504.9219 L337.9688,507.6406 Z "/><text fill="#000000" font-family="sans-serif" font-size="12" lengthAdjust="spacingAndGlyphs" textLength="138" x="349" y="506.1543">ProposedCombination</text><line style="stroke: #A80036; stroke-width: 1.5;" x1="321" x2="489" y1="518" y2="518"/><line style="stroke: #A80036; stroke-width: 1.5;" x1="321" x2="489" y1="526" y2="526"/><text fill="#000000" font-family="sans-serif" font-size="11" lengthAdjust="spacingAndGlyphs" textLength="34" x="326" y="540.2104">read()</text><text fill="#000000" font-family="sans-serif" font-size="11" lengthAdjust="spacingAndGlyphs" textLength="139" x="326" y="553.0151">contains(Color, position)</text><text fill="#000000" font-family="sans-serif" font-size="11" lengthAdjust="spacingAndGlyphs" textLength="86" x="326" y="565.8198">contains(Color)</text><text fill="#000000" font-family="sans-serif" font-size="11" lengthAdjust="spacingAndGlyphs" textLength="61" x="326" y="578.6245">set(Result)</text><text fill="#000000" font-family="sans-serif" font-size="11" lengthAdjust="spacingAndGlyphs" textLength="56" x="326" y="591.4292">isWinner()</text><!--MD5=[2741598bdf59a7d7e0d5c97658fd3022]
class Result--><rect fill="#FEFECE" filter="url(#f3uabqs3aytno)" height="99.2188" id="Result" style="stroke: #A80036; stroke-width: 1.5;" width="71" x="300.5" y="658"/><ellipse cx="315.5" cy="674" fill="#ADD1B2" rx="11" ry="11" style="stroke: #A80036; stroke-width: 1.0;"/><path d="M318.4688,679.6406 Q317.8906,679.9375 317.25,680.0859 Q316.6094,680.2344 315.9063,680.2344 Q313.4063,680.2344 312.0859,678.5859 Q310.7656,676.9375 310.7656,673.8125 Q310.7656,670.6875 312.0859,669.0313 Q313.4063,667.375 315.9063,667.375 Q316.6094,667.375 317.2578,667.5313 Q317.9063,667.6875 318.4688,667.9844 L318.4688,670.7031 Q317.8438,670.125 317.25,669.8516 Q316.6563,669.5781 316.0313,669.5781 Q314.6875,669.5781 314,670.6484 Q313.3125,671.7188 313.3125,673.8125 Q313.3125,675.9063 314,676.9766 Q314.6875,678.0469 316.0313,678.0469 Q316.6563,678.0469 317.25,677.7734 Q317.8438,677.5 318.4688,676.9219 L318.4688,679.6406 Z "/><text fill="#000000" font-family="sans-serif" font-size="12" lengthAdjust="spacingAndGlyphs" textLength="39" x="329.5" y="678.1543">Result</text><line style="stroke: #A80036; stroke-width: 1.5;" x1="301.5" x2="370.5" y1="690" y2="690"/><text fill="#000000" font-family="sans-serif" font-size="11" lengthAdjust="spacingAndGlyphs" textLength="35" x="306.5" y="704.2104">deads</text><text fill="#000000" font-family="sans-serif" font-size="11" lengthAdjust="spacingAndGlyphs" textLength="53" x="306.5" y="717.0151">damaged</text><line style="stroke: #A80036; stroke-width: 1.5;" x1="301.5" x2="370.5" y1="723.6094" y2="723.6094"/><text fill="#000000" font-family="sans-serif" font-size="11" lengthAdjust="spacingAndGlyphs" textLength="36" x="306.5" y="737.8198">write()</text><text fill="#000000" font-family="sans-serif" font-size="11" lengthAdjust="spacingAndGlyphs" textLength="56" x="306.5" y="750.6245">isWinner()</text><!--MD5=[59169f0a9ce45fb0b0a67f6880d127f6]
link Mastermind to SecretPlayer--><path d="M189.2889,79.895 C189.2889,79.895 202.1847,104.9702 208.5018,117.2536 " fill="none" id="Mastermind-SecretPlayer" style="stroke: #A80036; stroke-width: 1.0;"/><polygon fill="#A80036" points="214.475,128.868,213.916,119.035,212.1882,124.4216,206.8017,122.6938,214.475,128.868" style="stroke: #A80036; stroke-width: 1.0;"/><line style="stroke: #A80036; stroke-width: 1.0;" x1="212.1882" x2="208.5294" y1="124.4216" y2="117.3073"/><polygon fill="#A80036" points="183.8007,69.2236,182.9877,76.3887,189.2889,79.895,190.102,72.7299,183.8007,69.2236" style="stroke: #A80036; stroke-width: 1.0;"/><!--MD5=[0ddffe9da0ffd476b2abf84c03c49a5e]
link Mastermind to ProposedPlayer--><path d="M149.1033,80.3878 C149.1033,80.3878 136.3227,113.234 132,129 C118.9601,176.5601 110.1381,231.0816 104.4921,274.8814 " fill="none" id="Mastermind-ProposedPlayer" style="stroke: #A80036; stroke-width: 1.0;"/><polygon fill="#A80036" points="102.8763,287.8158,107.9611,279.381,103.4961,282.8544,100.0228,278.3894,102.8763,287.8158" style="stroke: #A80036; stroke-width: 1.0;"/><line style="stroke: #A80036; stroke-width: 1.0;" x1="103.4961" x2="104.4878" y1="282.8544" y2="274.916"/><polygon fill="#A80036" points="153.7578,69.3273,147.7437,73.3061,149.1033,80.3878,155.1174,76.4091,153.7578,69.3273" style="stroke: #A80036; stroke-width: 1.0;"/><!--MD5=[ce931c353e6230d44c723b9a91951478]
link SecretPlayer to ProposedPlayer--><path d="M199.888,228.2222 C186.0391,245.3891 170.2177,265.001 155.1691,283.655 " fill="none" id="SecretPlayer-&gt;ProposedPlayer" style="stroke: #A80036; stroke-width: 1.0;"/><polygon fill="#A80036" points="151.7691,287.8695,160.5333,283.3762,154.9085,283.978,154.3068,278.3532,151.7691,287.8695" style="stroke: #A80036; stroke-width: 1.0;"/><!--MD5=[45d72ed66508b4f634062a26699ad228]
link ProposedPlayer to ProposedCombination--><path d="M196.4754,421.399 C196.4754,421.399 201.8251,424.6786 204,426 C237.7274,446.492 275.0714,468.285 308.3267,487.3833 " fill="none" id="ProposedPlayer-ProposedCombination" style="stroke: #A80036; stroke-width: 1.0;"/><polygon fill="#A80036" points="319.9064,494.0197,314.0868,486.0741,315.5683,491.5335,310.1089,493.0151,319.9064,494.0197" style="stroke: #A80036; stroke-width: 1.0;"/><line style="stroke: #A80036; stroke-width: 1.0;" x1="315.5683" x2="308.6274" y1="491.5335" y2="487.5557"/><polygon fill="#FFFFFF" points="186.2661,415.0927,189.2687,421.649,196.4754,421.399,193.4729,414.8427,186.2661,415.0927" style="stroke: #A80036; stroke-width: 1.0;"/><!--MD5=[33f62f5e51ac49784cbe54f77d1183f4]
link SecretPlayer to SecretCombination--><path d="M272.4253,238.7907 C272.4253,238.7907 295.9773,282.5828 306.5928,302.3209 " fill="none" id="SecretPlayer-SecretCombination" style="stroke: #A80036; stroke-width: 1.0;"/><polygon fill="#A80036" points="312.8252,313.9093,312.0851,304.0883,310.4569,309.5058,305.0395,307.8775,312.8252,313.9093" style="stroke: #A80036; stroke-width: 1.0;"/><line style="stroke: #A80036; stroke-width: 1.0;" x1="310.4569" x2="306.6676" y1="309.5058" y2="302.4601"/><polygon fill="#FFFFFF" points="266.7414,228.2222,266.0605,235.4011,272.4253,238.7907,273.1062,231.6118,266.7414,228.2222" style="stroke: #A80036; stroke-width: 1.0;"/><!--MD5=[324ce3fbc91b6fad145775bb65621994]
link SecretCombination to ProposedCombination--><path d="M352.1774,400.3743 C361.1396,424.4034 372.4257,454.6632 382.2625,481.0373 " fill="none" id="SecretCombination-&gt;ProposedCombination" style="stroke: #A80036; stroke-width: 1.0; stroke-dasharray: 7.0,7.0;"/><polygon fill="#A80036" points="384.0815,485.9143,384.684,476.0839,382.3341,481.2296,377.1884,478.8797,384.0815,485.9143" style="stroke: #A80036; stroke-width: 1.0;"/><!--MD5=[f874647c3c9f57491b6e7b7bf233051a]
link SecretCombination to Result--><path d="M322.0998,400.0666 C314.817,424.8956 306.6667,456.8713 303,486 C296.783,535.388 295.7407,548.7544 303,598 C305.6864,616.224 310.7599,635.6207 316.1375,652.9467 " fill="none" id="SecretCombination-&gt;Result" style="stroke: #A80036; stroke-width: 1.0; stroke-dasharray: 7.0,7.0;"/><polygon fill="#A80036" points="317.6606,657.7759,318.7681,647.9895,316.1566,653.0075,311.1386,650.3959,317.6606,657.7759" style="stroke: #A80036; stroke-width: 1.0;"/><!--MD5=[6e8433e42d71f9427401b78cd95c6f0c]
link Combination to Color--><path d="M520.6227,213.4076 C520.6227,213.4076 557.0265,289.8557 571.754,320.7835 " fill="none" id="Combination-Color" style="stroke: #A80036; stroke-width: 1.0;"/><polygon fill="#A80036" points="577.4467,332.738,577.1887,322.8925,575.297,328.2237,569.9658,326.332,577.4467,332.738" style="stroke: #A80036; stroke-width: 1.0;"/><line style="stroke: #A80036; stroke-width: 1.0;" x1="575.297" x2="571.8575" y1="328.2237" y2="321.0008"/><polygon fill="#A80036" points="515.4635,202.5733,514.4317,209.7102,520.6227,213.4076,521.6546,206.2707,515.4635,202.5733" style="stroke: #A80036; stroke-width: 1.0;"/><!--MD5=[ed81d3472c9069d2de3c2f5cd308846f]
reverse link Combination to SecretCombination--><path d="M467.5666,217.2105 C440.777,245.6745 404.3588,284.3687 376.6296,313.831 " fill="none" id="Combination&lt;-SecretCombination" style="stroke: #A80036; stroke-width: 1.0;"/><polygon fill="none" points="462.538,212.3398,481.3428,202.5733,472.7329,221.9349,462.538,212.3398" style="stroke: #A80036; stroke-width: 1.0;"/><!--MD5=[2f10888865b2f559cc24db01ac34cee3]
reverse link Combination to ProposedCombination--><path d="M502.5656,222.6859 C499.8391,273.0678 491.9315,357.3368 469,426 C462.1876,446.3981 451.8141,467.37 441.3895,485.7755 " fill="none" id="Combination&lt;-ProposedCombination" style="stroke: #A80036; stroke-width: 1.0;"/><polygon fill="none" points="495.5726,222.3697,503.4675,202.7058,509.5584,223.0011,495.5726,222.3697" style="stroke: #A80036; stroke-width: 1.0;"/><!--MD5=[56a858877f3b765b77d25632c946f7a0]
link ProposedCombination to Result--><path d="M377.0219,609.1067 C377.0219,609.1067 366.6337,634.0235 361.8029,645.6105 " fill="none" id="ProposedCombination-Result" style="stroke: #A80036; stroke-width: 1.0;"/><polygon fill="#A80036" points="356.676,657.9076,363.8313,651.1399,358.6001,653.2926,356.4474,648.0614,356.676,657.9076" style="stroke: #A80036; stroke-width: 1.0;"/><line style="stroke: #A80036; stroke-width: 1.0;" x1="358.6001" x2="361.6786" y1="653.2926" y2="645.9087"/><polygon fill="#FFFFFF" points="381.6397,598.0308,375.6388,602.0295,377.0219,609.1067,383.0228,605.108,381.6397,598.0308" style="stroke: #A80036; stroke-width: 1.0;"/><!--MD5=[acffddefe96b44c28af94039b9670a8e]
@startuml
class Mastermind{
 play()  
}

class SecretPlayer{
  SecretPlayer(ProposedPlayer)
 prepare()  
  answer()
  write()
}
class ProposedPlayer{
  attempts
  propose()
  getLastProposedPlayer()
  writeAttemps()
  writeProposedCombinations()
  isWinner()
  isLooser()
  }

class Combination
enum Color
class SecretCombination{
  SecretCombination() // aleatorio
  calculateResult(ProposedCombination)
  write()
  }
class ProposedCombination{
  read()
  contains(Color, position)
  contains(Color)
  set(Result)
  isWinner()
  }

class Result{
  deads
  damaged
  write()
  isWinner()
  }


Mastermind *- -> SecretPlayer
Mastermind *- -> ProposedPlayer

SecretPlayer - -> ProposedPlayer

ProposedPlayer o- -> ProposedCombination
SecretPlayer o- -> SecretCombination

SecretCombination ..> ProposedCombination
SecretCombination ..> Result
Combination *- -> Color

Combination <|-down- SecretCombination
Combination <|-down- ProposedCombination

ProposedCombination o- -> Result
@enduml

PlantUML version 1.2019.10(Fri Sep 13 20:53:03 UTC 2019)
(GPL source distribution)
Java Runtime: OpenJDK Runtime Environment
JVM: OpenJDK 64-Bit Server VM
Java Version: 1.8.0_222-heroku-b10
Operating System: Linux
Default Encoding: UTF-8
Language: en
Country: US
--></g></svg>